<?xml version="1.0" standalone="no"?>
<!DOCTYPE svg PUBLIC "-//W3C//DTD SVG 20010904//EN"
 "http://www.w3.org/TR/2001/REC-SVG-20010904/DTD/svg10.dtd">
<svg version="1.0" xmlns="http://www.w3.org/2000/svg"
 width="500.000000pt" height="500.000000pt" viewBox="0 0 500.000000 500.000000"
 preserveAspectRatio="xMidYMid meet">
<metadata>
Created by potrace 1.11, written by Peter Selinger 2001-2013
</metadata>
<g transform="translate(0.000000,500.000000) scale(0.100000,-0.100000)"
fill="#000000" stroke="none">
<path d="M0 2500 l0 -2500 2500 0 2500 0 0 2500 0 2500 -2500 0 -2500 0 0
-2500z m2718 2200 c289 -32 524 -100 780 -229 337 -169 641 -438 844 -748 173
-262 300 -589 344 -878 3 -22 10 -67 15 -100 5 -33 9 -145 9 -250 0 -303 -49
-552 -165 -840 -166 -412 -486 -789 -878 -1035 -96 -60 -289 -157 -367 -185
-310 -109 -497 -143 -795 -144 -195 -1 -355 15 -490 50 -22 6 -67 18 -100 26
-84 22 -179 56 -288 102 -950 406 -1494 1431 -1297 2446 40 207 101 386 198
575 89 177 94 185 200 327 291 392 704 676 1184 813 59 17 126 33 150 36 24 4
53 10 66 15 12 5 61 11 110 15 48 3 89 8 91 10 9 8 297 3 389 -6z"/>
<path d="M2275 4343 c-653 -93 -1172 -469 -1453 -1054 -68 -143 -123 -304
-138 -408 -3 -20 -10 -61 -15 -91 -6 -30 -13 -145 -16 -255 -5 -162 -2 -222
11 -310 29 -186 88 -370 177 -550 59 -121 180 -315 218 -349 20 -18 22 -18 47
-1 66 43 1627 1602 1618 1616 -3 6 1 18 9 27 9 9 22 54 31 99 13 72 14 85 1
110 -8 15 -12 37 -9 49 3 12 1 25 -5 28 -6 4 -11 0 -11 -8 0 -9 -4 -16 -9 -16
-9 0 1 -69 13 -88 4 -7 4 -17 0 -23 -10 -16 -24 10 -24 44 0 16 -4 26 -9 22
-6 -3 -8 -23 -5 -45 5 -46 -12 -88 -29 -71 -7 7 -6 16 7 30 18 19 15 41 -5 41
-6 0 -7 -4 -4 -10 3 -5 2 -10 -4 -10 -5 0 -17 -7 -25 -16 -15 -14 -16 -13 -16
6 0 12 4 19 9 15 5 -3 13 0 16 5 8 13 -13 70 -26 70 -5 0 -6 7 -2 16 4 11 8
12 13 4 4 -7 9 3 12 23 3 30 0 37 -19 46 -13 6 -23 15 -23 20 0 6 -12 6 -31 1
-18 -5 -36 -7 -41 -4 -6 4 -5 -3 1 -14 9 -16 7 -21 -10 -25 -16 -4 -19 -11
-14 -27 9 -28 -12 -55 -31 -39 -10 8 -14 8 -14 0 0 -6 4 -11 8 -11 4 0 8 -9 8
-20 0 -19 -1 -19 -17 -3 -26 27 -32 59 -14 76 17 18 20 68 4 84 -8 8 -8 13 0
17 6 4 11 15 10 24 0 11 -3 12 -6 5 -5 -14 -43 -18 -43 -5 0 11 20 38 20 27 0
-5 4 -4 9 4 6 9 4 19 -6 29 -14 14 -13 17 3 29 9 7 20 10 23 7 3 -3 -1 -10 -9
-15 -12 -8 -12 -10 -1 -7 21 6 35 48 16 48 -8 0 -15 5 -15 10 0 6 11 10 25 10
14 0 28 7 31 15 4 8 12 15 19 15 25 0 24 15 -1 16 -13 1 -24 -4 -24 -11 0 -7
-14 -15 -31 -19 -44 -9 -56 -7 -39 4 13 9 13 10 0 10 -13 0 -13 1 0 10 12 8 9
10 -13 10 -23 0 -26 2 -15 14 10 10 15 11 21 2 6 -7 7 -6 4 4 -2 8 -13 16 -25
18 -12 2 -22 8 -22 13 0 5 -3 8 -7 8 -5 -1 -10 0 -13 1 -3 1 -30 4 -60 7 -30
3 -66 11 -80 19 l-25 14 25 -2 c15 -2 24 2 23 9 -2 6 10 22 25 34 18 15 21 20
7 14 -11 -5 -31 -9 -45 -10 -14 -1 -35 -7 -45 -14 -18 -11 -17 -12 13 -8 17 2
32 0 32 -5 0 -4 -12 -8 -26 -8 -14 0 -23 -4 -19 -10 4 -6 -5 -10 -19 -10 -25
0 -26 0 -7 -19 10 -10 27 -24 37 -30 15 -8 16 -11 4 -12 -8 -1 1 -5 20 -9 21
-4 -5 -6 -65 -5 l-100 3 -47 -39 c-49 -42 -56 -69 -23 -93 9 -6 16 -16 15 -21
-2 -6 -2 -17 -1 -25 1 -11 4 -11 13 -2 7 7 22 12 34 12 17 0 25 -9 35 -37 6
-21 19 -51 28 -66 13 -24 14 -29 2 -37 -12 -7 -12 -11 2 -25 10 -9 17 -25 17
-36 0 -18 42 -45 63 -41 6 2 11 -22 8 -41 -1 -4 8 -26 19 -49 25 -51 25 -49
-2 -45 -19 3 -32 -4 -72 -38 -6 -5 -20 -17 -30 -25 -18 -14 -18 -13 -11 10 7
24 7 24 -9 5 -8 -11 -16 -26 -16 -32 0 -7 -6 -13 -14 -13 -8 0 -39 -21 -69
-46 l-55 -46 24 -42 c28 -48 29 -56 9 -56 -8 0 -15 6 -15 13 0 19 -52 74 -74
78 -14 3 -3 12 38 34 62 32 77 45 51 45 -9 0 -13 5 -10 10 3 6 1 10 -5 10 -7
0 -10 6 -7 13 3 9 -5 12 -29 9 -33 -4 -34 -3 -28 27 5 21 3 31 -6 31 -9 0 -11
16 -8 60 4 61 -5 81 -16 35 -8 -32 -13 -31 -61 11 -32 28 -37 37 -25 44 13 8
12 10 -2 10 -10 0 -18 -7 -18 -15 0 -11 -5 -12 -24 -5 -16 6 -28 5 -36 -3 -10
-9 -11 -9 -6 1 4 6 2 12 -3 12 -6 0 -11 -6 -11 -14 0 -7 -7 -19 -15 -26 -8 -7
-15 -21 -15 -31 0 -11 -4 -19 -9 -19 -5 0 -12 -10 -16 -22 -6 -19 -8 -20 -12
-6 -2 9 0 25 5 35 11 21 6 105 -11 183 -18 85 -15 216 7 284 15 46 16 63 7 77
-17 28 -13 31 9 9 l21 -21 35 27 c88 68 137 127 111 137 -7 3 -4 6 6 6 27 1
15 25 -16 31 -14 3 -35 17 -46 32 -14 17 -35 29 -60 33 -22 4 -45 13 -52 21
-13 16 -56 18 -93 4 -27 -10 -35 -34 -13 -44 9 -5 9 -7 0 -12 -9 -4 -10 -11
-4 -22 5 -9 5 -26 1 -36 -6 -19 -7 -19 -28 2 -39 39 -25 122 32 190 44 51 95
45 180 -21 22 -18 53 -32 72 -33 18 -2 47 -10 63 -18 45 -24 200 -11 265 22
29 15 88 30 145 39 53 8 98 18 99 24 2 5 18 31 36 56 36 52 102 93 150 93 74
0 141 -66 152 -149 5 -42 11 -50 50 -75 100 -63 483 -391 484 -414 0 -4 8 -16
16 -27 15 -19 24 -11 234 205 209 215 218 226 202 244 -33 36 -259 179 -367
231 -93 45 -203 86 -362 136 -94 29 -209 41 -423 44 -124 1 -238 1 -255 -2z
m-557 -528 c-3 -3 -9 2 -12 12 -6 14 -5 15 5 6 7 -7 10 -15 7 -18z m537 -205
c3 -6 -1 -7 -9 -4 -18 7 -21 14 -7 14 6 0 13 -4 16 -10z m180 -280 c3 -5 1
-10 -4 -10 -6 0 -11 5 -11 10 0 6 2 10 4 10 3 0 8 -4 11 -10z m189 -65 c-4 -8
-7 -15 -9 -15 -2 0 -5 7 -9 15 -3 9 0 15 9 15 9 0 12 -6 9 -15z m-54 -46 c0
-4 -4 -11 -10 -14 -5 -3 -10 0 -10 9 0 8 -3 23 -6 33 -5 16 -4 16 10 -1 9 -11
16 -23 16 -27z m-32 -48 c-4 -21 -38 -23 -38 -2 0 10 8 17 20 17 13 0 20 -6
18 -15z m-820 -171 c22 -41 40 -62 57 -66 14 -3 25 -12 25 -19 0 -7 9 -24 21
-39 11 -14 16 -26 12 -26 -15 0 -53 40 -53 55 0 8 -7 16 -15 16 -8 1 -19 2
-25 3 -5 0 -21 18 -36 39 -26 38 -29 39 -81 20 -15 -6 -16 6 -3 27 5 8 10 10
10 3 0 -6 9 -9 20 -6 16 4 20 12 16 34 -6 43 15 26 52 -41z m1002 26 c0 -8 -6
-16 -14 -19 -10 -4 -12 0 -9 14 6 22 23 26 23 5z m-1092 -147 c9 -52 6 -151
-8 -184 -10 -28 -12 -28 -22 -11 -7 13 -7 39 1 87 6 37 11 87 11 110 0 48 8
47 18 -2z m579 -51 c-3 -8 -6 -5 -6 6 -1 11 2 17 5 13 3 -3 4 -12 1 -19z m95
-5 c-3 -16 -7 -22 -10 -15 -4 13 4 42 11 42 2 0 2 -12 -1 -27z m-110 -38 c12
-16 9 -32 -7 -49 -21 -21 -55 -1 -55 32 0 13 4 20 10 17 6 -3 10 -2 10 3 0 13
33 10 42 -3z m58 -45 c0 -5 -4 -10 -10 -10 -5 0 -10 5 -10 10 0 6 5 10 10 10
6 0 10 -4 10 -10z m-641 -79 c11 -7 12 -15 3 -38 -7 -15 -13 -41 -15 -58 -2
-16 -8 -39 -15 -50 -10 -17 -11 -13 -12 30 0 59 10 125 19 125 3 0 12 -4 20
-9z m-26 -218 c-3 -7 0 -20 7 -28 6 -8 10 -27 9 -42 -2 -15 1 -35 6 -43 5 -8
10 -21 10 -30 1 -8 6 -53 11 -100 4 -47 8 -113 9 -147 0 -34 3 -65 8 -69 10
-11 9 -24 -4 -24 -5 0 -7 5 -4 10 3 6 2 10 -4 10 -12 0 -34 66 -27 79 4 5 -4
17 -16 25 -12 9 -17 16 -10 16 7 0 10 4 7 10 -4 6 -13 5 -26 -3 -14 -9 -19
-21 -17 -46 2 -26 -1 -34 -15 -37 -35 -5 -47 -13 -47 -33 0 -11 -9 -22 -20
-26 -29 -9 -25 -28 5 -23 35 7 20 -10 -17 -20 -18 -4 -34 -14 -36 -21 -3 -10
0 -11 16 -2 35 19 37 12 5 -21 -17 -18 -38 -55 -48 -83 -10 -27 -25 -56 -34
-62 -8 -7 -12 -13 -8 -13 3 0 -1 -16 -9 -35 -15 -36 -6 -47 16 -20 7 8 17 15
22 15 17 0 -12 -28 -44 -45 l-31 -15 7 64 c15 153 102 330 230 475 42 47 43
51 35 93 -10 52 -12 212 -2 221 10 10 22 -14 16 -30z m-20 -458 c-3 -9 -8 -14
-10 -11 -3 3 -2 9 2 15 9 16 15 13 8 -4z m-113 -120 c-7 -8 -18 -15 -24 -15
-6 0 -2 7 8 15 25 19 32 19 16 0z m55 -57 c5 -4 0 -6 -12 -6 -13 1 -19 7 -16
15 3 8 8 10 12 6 3 -4 10 -11 16 -15z m55 -28 c0 -4 -6 -13 -14 -19 -15 -13
-32 1 -22 17 6 10 36 11 36 2z m-373 -236 c-3 -3 -12 -4 -19 -1 -8 3 -5 6 6 6
11 1 17 -2 13 -5z m-51 -19 c-11 -8 -25 -15 -30 -15 -6 1 0 7 14 15 32 19 40
18 16 0z"/>
<path d="M2535 4088 c-2 -7 -5 -19 -7 -27 -3 -11 -7 -11 -20 3 -10 10 -19 12
-23 6 -10 -16 -25 -12 -25 8 0 12 -10 7 -35 -21 -19 -21 -32 -43 -29 -49 5 -7
1 -9 -9 -5 -18 7 -19 2 -21 -88 -1 -37 -3 -40 -28 -37 -22 3 -27 -1 -25 -17 1
-11 7 -23 15 -26 8 -3 11 -12 8 -21 -3 -8 -2 -12 4 -9 15 9 60 -6 60 -21 0 -8
-7 -14 -16 -14 -8 0 -12 5 -9 10 3 6 1 10 -4 10 -6 0 -11 -5 -11 -11 0 -7 -8
-18 -17 -26 -16 -13 -16 -14 9 -9 19 4 30 1 36 -10 10 -18 40 -21 90 -9 22 5
32 4 32 -4 0 -8 8 -10 19 -6 11 3 22 1 26 -5 3 -5 14 -10 25 -10 11 0 20 -10
24 -25 4 -14 11 -25 17 -25 6 0 7 5 3 11 -4 7 -1 10 7 7 8 -3 15 -15 17 -27 2
-13 16 -30 31 -38 24 -14 38 -34 58 -80 3 -7 -1 -13 -9 -13 -9 0 -15 -12 -16
-33 -2 -32 -1 -33 28 -29 18 2 27 9 23 15 -4 6 0 8 9 4 14 -5 15 -1 6 31 -5
20 -17 45 -25 54 -8 9 -12 22 -8 28 4 6 -1 20 -11 31 -21 24 -41 25 -23 2 11
-15 11 -16 -1 -6 -19 18 -21 43 -4 43 9 0 12 5 9 10 -3 6 0 10 7 11 7 0 -5 6
-27 14 -24 8 -32 13 -20 14 21 1 48 27 53 50 2 9 -10 6 -33 -8 -44 -25 -45
-26 -45 -3 1 26 25 63 50 77 19 10 20 13 6 18 -10 4 -15 3 -12 -2 3 -5 0 -11
-8 -14 -11 -4 -14 3 -11 34 2 21 0 37 -5 34 -4 -3 -11 7 -15 22 -5 21 -8 24
-16 12 -6 -9 -8 11 -4 59 4 61 3 72 -10 72 -9 0 -26 -11 -38 -24 l-22 -24 -2
26 c-1 18 1 21 8 11 7 -11 9 -10 9 4 0 10 5 15 10 12 6 -3 10 2 10 11 0 10 -3
15 -6 11 -4 -3 -13 0 -21 8 -18 18 -32 19 -38 3z m-35 -38 c0 -5 -5 -10 -11
-10 -5 0 -7 5 -4 10 3 6 8 10 11 10 2 0 4 -4 4 -10z m123 -35 c-3 -9 -8 -14
-10 -11 -3 3 -2 9 2 15 9 16 15 13 8 -4z m-16 -39 c-3 -8 -1 -17 6 -20 7 -2 3
-5 -9 -5 -28 -1 -35 8 -21 25 16 18 31 18 24 0z m63 -306 c0 -5 -2 -10 -4 -10
-3 0 -8 5 -11 10 -3 6 -1 10 4 10 6 0 11 -4 11 -10z"/>
<path d="M1650 3916 c0 -9 40 -13 46 -5 3 5 -6 9 -20 9 -14 0 -26 -2 -26 -4z"/>
<path d="M1744 3875 c43 -40 56 -44 49 -15 -3 13 -14 20 -29 20 -13 0 -24 4
-24 9 0 5 -8 12 -17 15 -10 3 -1 -10 21 -29z"/>
<path d="M2160 3865 c-11 -13 -10 -14 4 -9 9 3 16 10 16 15 0 13 -6 11 -20 -6z"/>
<path d="M2213 3845 c0 -8 4 -12 9 -9 5 3 6 10 3 15 -9 13 -12 11 -12 -6z"/>
<path d="M1943 3833 c-7 -3 -13 -11 -13 -19 0 -11 4 -12 19 -5 10 6 30 8 44 6
15 -3 27 0 30 8 4 10 -5 14 -31 14 -21 0 -43 -2 -49 -4z"/>
<path d="M2042 3815 c3 -18 28 -30 28 -12 0 4 -3 7 -6 6 -4 0 -11 5 -16 13 -7
9 -8 8 -6 -7z"/>
<path d="M1887 3800 c-14 -11 -31 -20 -38 -20 -7 0 -10 -3 -6 -6 10 -10 77 17
77 32 0 18 -2 18 -33 -6z"/>
<path d="M2035 3770 c-3 -5 -1 -10 4 -10 6 0 11 5 11 10 0 6 -2 10 -4 10 -3 0
-8 -4 -11 -10z"/>
<path d="M1996 3757 c-15 -11 -17 -18 -8 -33 7 -11 12 -13 12 -6 0 7 6 10 13
7 6 -3 4 0 -5 7 -15 11 -15 13 0 25 23 17 11 17 -12 0z"/>
<path d="M2205 3730 c-3 -6 1 -7 9 -4 18 7 21 14 7 14 -6 0 -13 -4 -16 -10z"/>
<path d="M2280 3688 c-21 -9 -22 -12 -8 -15 10 -3 25 3 34 11 18 18 10 19 -26
4z"/>
<path d="M2358 3643 c7 -3 16 -2 19 1 4 3 -2 6 -13 5 -11 0 -14 -3 -6 -6z"/>
<path d="M3684 3386 l-271 -265 20 -63 c11 -35 43 -133 72 -218 80 -236 113
-366 121 -464 7 -99 8 -101 108 -176 55 -41 116 -127 145 -206 25 -65 44 -185
35 -220 -6 -24 -19 -28 -86 -28 -9 0 -15 -2 -14 -5 2 -3 -2 -12 -10 -19 -11
-10 -17 -9 -34 8 -15 15 -20 16 -20 6 0 -8 5 -18 10 -21 16 -10 12 -25 -7 -25
-14 0 -12 -4 7 -25 20 -21 21 -25 6 -25 -9 0 -14 5 -11 11 4 5 -7 15 -24 22
-28 10 -39 35 -13 30 6 -2 9 4 6 12 -4 8 -10 15 -16 15 -5 0 -6 -4 -3 -10 9
-15 -7 -12 -36 8 -16 11 -25 25 -24 39 1 12 -5 25 -13 28 -10 4 -12 0 -8 -12
4 -12 -1 -9 -15 7 -15 18 -19 20 -15 7 8 -25 -4 -44 -15 -26 -6 10 -9 5 -9
-16 l0 -30 -21 33 c-23 35 -38 38 -20 4 6 -12 11 -28 11 -38 0 -15 -2 -15 -22
-2 -21 14 -23 13 -40 -19 -10 -19 -16 -38 -13 -43 10 -16 -35 3 -59 25 -17 16
-23 30 -19 44 3 12 8 21 12 21 4 0 6 16 6 35 -1 20 2 38 6 41 5 2 6 11 2 19
-3 9 0 22 7 30 6 8 9 19 5 25 -9 14 4 52 16 45 9 -6 14 19 9 40 -2 6 -4 30 -6
55 -5 63 -9 89 -17 96 -4 4 -2 12 3 19 12 14 -9 65 -27 65 -7 0 -10 7 -6 15 5
14 8 14 25 -2 18 -17 19 -16 9 10 -6 15 -10 31 -10 35 4 25 -3 40 -18 37 -10
-1 -12 0 -5 2 17 6 15 20 -5 27 -15 6 -15 8 -3 16 13 9 13 10 0 10 -8 1 -25
14 -38 31 -26 32 -15 40 13 9 34 -38 47 -18 21 33 -8 15 -11 27 -5 27 5 0 9 5
9 11 0 6 -9 9 -19 6 -13 -3 -28 4 -43 20 -17 18 -18 22 -5 17 12 -4 17 -1 17
10 0 15 2 15 25 0 22 -15 25 -15 25 -1 0 17 -37 57 -52 57 -5 0 -6 5 -2 11 4
8 9 7 15 -2 6 -10 9 -11 9 -1 0 7 8 4 21 -9 16 -16 23 -18 34 -9 11 9 10 17
-7 46 -11 19 -25 34 -31 35 -7 0 -1 5 13 11 l25 10 -22 9 c-13 5 -23 17 -23
28 0 26 -17 36 -23 14 -4 -14 -5 -13 -6 4 0 12 4 23 9 25 6 2 -1 18 -16 36
-21 25 -30 30 -40 21 -9 -8 -14 -8 -14 -1 0 6 5 12 12 14 8 3 9 15 1 46 -7 28
-7 42 0 45 10 3 -19 37 -32 37 -8 0 -776 -771 -1519 -1524 -211 -213 -381
-393 -380 -399 6 -19 194 -141 293 -190 292 -146 516 -197 863 -197 320 0 535
51 822 195 191 95 349 214 514 385 101 106 119 130 96 130 -5 0 -10 5 -10 11
0 8 4 8 14 0 11 -10 24 3 68 66 126 180 210 357 273 578 35 122 44 191 51 390
10 264 -11 453 -69 635 -68 210 -200 471 -291 575 l-31 36 -271 -265z m-411
-461 c-5 -13 -23 -22 -23 -11 0 15 14 35 21 31 4 -3 6 -12 2 -20z m7 -65 c0
-5 -2 -10 -4 -10 -3 0 -8 5 -11 10 -3 6 -1 10 4 10 6 0 11 -4 11 -10z m10 -70
c0 -5 -4 -10 -10 -10 -5 0 -10 5 -10 10 0 6 5 10 10 10 6 0 10 -4 10 -10z m56
-112 c4 -7 3 -8 -4 -4 -7 4 -12 2 -12 -5 0 -7 -3 -10 -6 -6 -6 5 3 27 11 27 2
0 7 -5 11 -12z m4 -226 c-6 -2 -20 5 -31 16 -28 31 -23 36 12 10 16 -12 25
-24 19 -26z m10 -110 c-5 -2 -8 -8 -4 -13 9 -15 -13 -10 -26 6 -7 8 -16 12
-21 9 -5 -3 -6 1 -3 9 4 12 11 13 35 4 16 -7 25 -13 19 -15z m-10 -126 c0 -6
-7 -2 -15 8 -8 11 -15 25 -15 30 0 6 7 2 15 -8 8 -11 15 -25 15 -30z m61 -569
c-10 -9 -11 -8 -5 6 3 10 9 15 12 12 3 -3 0 -11 -7 -18z m-1122 -648 c13 -61
14 -69 2 -69 -13 0 -31 57 -31 97 0 48 16 32 29 -28z m729 -4 c0 -25 -4 -43
-9 -39 -16 9 -10 84 7 84 1 0 2 -20 2 -45z m-819 -42 c0 -13 -5 -23 -11 -23
-15 0 -23 74 -11 93 8 12 19 -26 22 -70z m121 44 c0 -18 -2 -19 -10 -7 -13 20
-13 43 0 35 6 -3 10 -16 10 -28z m-204 -94 c-21 -21 -36 60 -19 104 5 12 10 0
16 -41 4 -32 6 -60 3 -63z m784 50 c-10 -16 -11 -15 -6 7 3 14 6 34 7 45 1 13
3 11 6 -7 2 -15 -1 -35 -7 -45z m44 10 c3 -10 9 -24 12 -30 3 -8 -1 -13 -10
-13 -9 0 -16 6 -16 14 0 8 -3 21 -6 30 -3 9 -2 16 4 16 5 0 12 -8 16 -17z
m-604 -2 c0 -12 -20 -25 -27 -18 -7 7 6 27 18 27 5 0 9 -4 9 -9z m-303 -83
c-3 -7 -5 -2 -5 12 0 14 2 19 5 13 2 -7 2 -19 0 -25z m-80 0 c-3 -8 -6 -5 -6
6 -1 11 2 17 5 13 3 -3 4 -12 1 -19z"/>
<path d="M3027 3609 c7 -7 15 -10 18 -7 3 3 -2 9 -12 12 -14 6 -15 5 -6 -5z"/>
<path d="M2470 3590 c0 -5 4 -10 9 -10 6 0 13 5 16 10 3 6 -1 10 -9 10 -9 0
-16 -4 -16 -10z"/>
<path d="M1694 3535 c-23 -23 -30 -40 -27 -57 3 -15 -2 -29 -11 -37 -17 -14
-22 -52 -9 -65 5 -4 9 -29 10 -54 2 -48 17 -119 27 -130 9 -9 64 48 84 87 10
20 24 55 31 78 8 22 34 62 58 88 41 42 43 47 28 59 -10 7 -28 11 -41 8 -13 -2
-24 0 -24 5 0 5 -10 10 -22 10 -29 3 -68 -34 -68 -64 0 -13 -3 -23 -8 -23 -10
0 -2 79 9 86 11 6 12 44 2 44 -5 -1 -22 -16 -39 -35z"/>
<path d="M2550 3511 c0 -4 -10 -13 -22 -19 -18 -8 -19 -11 -6 -11 9 -1 22 -9
27 -18 8 -15 11 -15 12 -3 1 8 1 18 0 23 0 4 5 7 13 7 25 0 25 26 0 28 -13 1
-24 -2 -24 -7z"/>
<path d="M2985 3500 c3 -14 10 -47 15 -74 6 -27 13 -52 16 -55 12 -11 -5 84
-21 119 -11 23 -14 27 -10 10z"/>
<path d="M2587 3456 c-3 -8 -16 -16 -29 -18 -21 -4 -21 -5 -4 -13 12 -5 21 -3
27 6 6 11 11 11 21 1 9 -9 9 -12 0 -12 -7 0 -12 -7 -12 -15 0 -8 5 -15 10 -15
6 0 10 5 10 10 0 14 73 12 90 -2 8 -7 7 -4 -3 8 -9 11 -17 26 -17 32 0 7 -9
12 -20 12 -11 0 -20 5 -20 10 0 16 -47 12 -53 -4z"/>
<path d="M2490 3450 c0 -5 5 -10 10 -10 6 0 10 5 10 10 0 6 -4 10 -10 10 -5 0
-10 -4 -10 -10z"/>
<path d="M2848 3428 c-3 -34 18 -84 39 -92 9 -4 11 4 7 27 -6 32 -32 97 -39
97 -2 0 -5 -15 -7 -32z"/>
<path d="M3166 3420 c7 -28 12 -35 18 -29 2 2 -2 15 -10 29 l-15 25 7 -25z"/>
<path d="M2494 3406 c-12 -26 -3 -36 32 -36 17 0 19 26 2 33 -10 4 -10 6 0 6
16 1 5 21 -11 21 -7 0 -17 -11 -23 -24z"/>
<path d="M2734 3405 c-3 -8 -3 -19 1 -25 3 -6 -3 -10 -15 -10 -15 0 -20 -5
-17 -15 4 -8 2 -17 -3 -20 -18 -11 -10 -22 15 -20 13 2 28 -2 33 -8 10 -13 22
-58 25 -94 1 -12 8 -28 15 -35 6 -6 12 -25 12 -40 0 -15 5 -28 11 -28 7 0 9 9
5 23 -3 12 -6 35 -6 51 0 20 -4 27 -14 23 -12 -5 -13 0 -4 26 13 39 28 58 38
52 4 -3 10 11 12 30 2 19 3 35 3 35 -1 0 -12 -8 -24 -19 -14 -12 -19 -25 -15
-36 6 -15 4 -15 -14 -4 -22 14 -32 36 -24 57 3 10 7 10 20 0 17 -15 15 -7 -13
39 -22 36 -33 41 -41 18z"/>
<path d="M2626 3373 l-29 -15 23 -18 c30 -22 49 -16 46 16 -4 33 -7 34 -40 17z"/>
<path d="M3009 3334 c-1 -10 -2 -40 -3 -65 0 -25 -8 -54 -16 -65 -8 -10 0 -6
17 10 17 15 30 33 28 40 -2 6 -7 29 -10 50 -6 44 -14 59 -16 30z"/>
<path d="M2872 3272 c7 -15 18 -34 25 -43 7 -8 13 -29 13 -46 0 -18 6 -33 15
-37 12 -4 15 3 15 33 0 30 -4 40 -20 44 -13 3 -20 14 -20 29 0 13 -9 29 -20
36 -18 11 -19 10 -8 -16z"/>
<path d="M2690 3241 c0 -5 5 -13 10 -16 6 -3 10 -2 10 4 0 5 -4 13 -10 16 -5
3 -10 2 -10 -4z"/>
<path d="M2490 3231 c0 -5 5 -13 10 -16 6 -3 10 -2 10 4 0 5 -4 13 -10 16 -5
3 -10 2 -10 -4z"/>
<path d="M2842 3180 c5 -17 15 -33 21 -37 7 -4 8 0 2 13 -4 10 -8 27 -9 37 0
9 -6 17 -13 17 -9 0 -9 -7 -1 -30z"/>
<path d="M2867 3122 c-8 -9 -22 -35 -32 -57 l-16 -40 40 40 c23 21 41 45 41
51 0 21 -17 24 -33 6z"/>
<path d="M3337 3042 c-30 -31 -35 -52 -12 -52 8 0 15 8 15 18 0 10 7 28 16 40
21 30 13 28 -19 -6z"/>
<path d="M2097 3038 c-7 -27 -1 -36 15 -20 7 7 20 12 30 12 11 0 15 5 12 15
-9 24 -51 19 -57 -7z"/>
<path d="M2787 3053 c-4 -3 -7 -16 -7 -27 0 -12 -7 -33 -17 -46 -15 -23 -14
-23 14 3 22 21 29 34 25 52 -5 27 -6 28 -15 18z"/>
<path d="M3351 2904 c0 -11 3 -14 6 -6 3 7 2 16 -1 19 -3 4 -6 -2 -5 -13z"/>
<path d="M3310 2882 c0 -12 10 -27 23 -33 19 -11 20 -10 10 3 -7 8 -11 17 -8
20 3 3 -1 11 -10 18 -13 10 -15 9 -15 -8z"/>
<path d="M3447 2669 c7 -7 15 -10 18 -7 3 3 -2 9 -12 12 -14 6 -15 5 -6 -5z"/>
<path d="M3450 2601 c0 -6 4 -13 10 -16 6 -3 7 1 4 9 -7 18 -14 21 -14 7z"/>
<path d="M3423 2528 c26 -24 36 -23 30 3 -4 15 -8 17 -14 8 -5 -8 -12 -10 -21
-3 -8 5 -5 1 5 -8z"/>
<path d="M3460 2457 c0 -10 -7 -13 -20 -10 -11 3 -20 1 -20 -5 0 -17 38 -57
46 -49 11 11 14 66 3 73 -5 3 -9 -1 -9 -9z"/>
<path d="M3424 2375 c3 -8 0 -15 -7 -15 -7 -1 -1 -9 12 -20 23 -20 41 -19 41
3 0 12 -34 47 -46 47 -3 0 -4 -7 0 -15z"/>
<path d="M3640 1978 c0 -18 50 -78 66 -78 12 0 12 4 2 23 -29 51 -68 83 -68
55z"/>
<path d="M3591 1848 c16 -32 17 -32 15 -4 0 14 -7 26 -14 26 -10 0 -10 -5 -1
-22z"/>
<path d="M3686 1855 c4 -8 11 -15 16 -15 5 0 18 -10 29 -22 14 -18 18 -19 19
-7 0 16 -43 59 -60 59 -5 0 -7 -7 -4 -15z"/>
<path d="M3780 1826 c0 -8 4 -17 9 -20 5 -4 7 3 4 14 -6 23 -13 26 -13 6z"/>
<path d="M3540 1823 c0 -4 5 -15 10 -23 8 -13 10 -13 10 2 0 9 -4 20 -10 23
-5 3 -10 3 -10 -2z"/>
<path d="M3682 1769 c2 -7 12 -13 21 -15 23 -3 21 3 -4 17 -17 8 -20 8 -17 -2z"/>
</g>
</svg>
